<svg width="1920" height="1080" viewBox="0 0 1920 1080" fill="none" xmlns="http://www.w3.org/2000/svg">
  <g opacity="0.3">
    <path d="M1920 0H0V1080H1920V0Z" fill="white"/>
    <path d="M1201.19 1075.29C1045.51 1209.46 751.019 1075.29 723.506 867.636C695.993 659.985 845.754 636.551 896.035 452.332C946.317 268.114 723.506 169.781 794.068 57.37C864.63 -55.0417 1113.01 11.4333 1300.31 57.37C1487.61 103.307 1552.62 254.8 1678.68 333.055C1804.74 411.309 1932.25 659.985 1820.28 772.395C1708.31 884.805 1356.86 941.114 1201.19 1075.29Z" fill="url(#paint0_linear_2_8)"/>
    <path d="M1226.14 902.914C1226.14 902.914 1288.97 847.293 1357.13 873.09C1425.28 898.888 1407.25 1001.32 1407.25 1001.32C1407.25 1001.32 1425.28 842.275 1357.13 804.586C1288.97 766.897 1226.14 902.914 1226.14 902.914Z" fill="#6C63FF"/>
    <path d="M278.672 970.642C414.788 990.744 459.613 850.097 389.05 767.815C318.488 685.532 220.093 733.908 137.135 636.802C54.1766 539.695 137.135 440.023 98.8178 352.699C60.5008 265.375 -110.417 243.613 -261.874 235.066C-413.332 226.52 -499.858 134.699 -606.059 103.05C-712.26 71.4011 -875.159 235.066 -840.41 377.278C-805.661 519.49 -586.33 644.119 -278.035 631.784C-25.7045 621.349 -48.2506 907.125 278.672 970.642Z" fill="url(#paint1_linear_2_8)"/>
    <path d="M234.779 1029.16L226.404 1077.25C226.404 1077.25 217.192 1091.83 226.404 1095.42C235.616 1099.01 245.665 1092.7 245.665 1092.7L256.551 1081.7L266.6 1133.36L275.812 1133.22C275.812 1133.22 285.861 1076.11 280.918 1067.56C275.976 1059.01 234.779 1029.16 234.779 1029.16Z" fill="#2F2E41"/>
    <path d="M383.519 1029.16L375.144 1077.25C375.144 1077.25 365.932 1091.83 375.144 1095.42C384.356 1099.01 394.405 1092.7 394.405 1092.7L405.291 1081.7L415.34 1133.36L424.552 1133.22C424.552 1133.22 434.602 1076.11 429.659 1067.56C424.716 1059.01 383.519 1029.16 383.519 1029.16Z" fill="#2F2E41"/>
    <path d="M328.94 488.693L322.325 502.262L319.892 518.987L399.403 512.373C399.403 512.373 393.596 489.645 399.403 475.124C405.21 460.604 328.94 488.693 328.94 488.693Z" fill="#FBBEBE"/>
    <path d="M296.971 524.649C296.971 524.649 322.325 509.176 331.373 510.957C340.421 512.739 340.421 523.206 340.421 523.206C340.421 523.206 350.305 538.32 347.872 544.933L342.065 604.493L331.373 649.631L249.593 649.631L268.906 524.649L296.971 524.649Z" fill="#D0CDE1"/>
    <path d="M272.803 519.344C272.803 519.344 249.593 514.866 246.351 524.292C243.109 533.718 235.638 614.96 235.638 614.96L208.381 631.244C208.381 631.244 190.742 645.765 211.321 647.546C231.899 649.328 240.947 631.244 240.947 631.244L281.144 589.302L272.803 519.344Z" fill="#FBBEBE"/>
    <path d="M397.778 519.344C397.778 519.344 420.988 514.866 424.23 524.292C427.472 533.718 434.943 614.96 434.943 614.96L462.199 631.244C462.199 631.244 479.839 645.765 459.26 647.546C438.682 649.328 429.634 631.244 429.634 631.244L389.437 589.302L397.778 519.344Z" fill="#FBBEBE"/>
    <path d="M319.893 510.661C319.893 510.661 305.938 499.254 293.73 502.262C281.521 505.271 255.759 505.271 255.759 505.271L246.024 536.539C246.024 536.539 233.897 623.678 242.945 623.678C251.993 623.678 339.613 616.06 368.904 623.678C398.195 631.296 412.149 623.678 412.149 623.678L388.629 538.32L368.904 507.652L319.893 510.661Z" fill="#D0CDE1"/>
    <path d="M301.472 403.607C301.472 403.607 300.663 427.287 310.845 433.323C321.027 439.359 334.613 443.389 334.613 443.389L367.28 442.56C367.28 442.56 345.705 377.923 347.555 372.715C349.405 367.508 301.472 403.607 301.472 403.607Z" fill="#FBBEBE"/>
    <path opacity="0.1" d="M301.472 403.607C301.472 403.607 300.663 427.287 310.845 433.323C321.027 439.359 334.613 443.389 334.613 443.389L367.28 442.56C367.28 442.56 345.705 377.923 347.555 372.715C349.405 367.508 301.472 403.607 301.472 403.607Z" fill="black"/>
    <path d="M257.833 649.631C257.833 649.631 251.218 628.699 257.833 669.61C264.448 710.521 267.689 743.997 267.689 743.997L273.496 841.922C273.496 841.922 251.218 988.114 273.496 992.946C295.774 997.777 313.33 993.35 313.33 993.35C313.33 993.35 315.763 933.79 315.763 932.009C315.763 930.227 334.614 821.394 334.614 821.394L356.892 735.426L386.812 954.722C386.812 954.722 379.389 993.35 408.282 992.946C437.175 992.542 448.243 990.357 448.243 990.357C448.243 990.357 457.292 916.517 451.484 881.023C445.677 845.53 420.631 697.557 420.631 697.557C420.631 697.557 419.823 644.8 399.245 649.631L257.833 649.631Z" fill="#2F2E41"/>
    <path d="M317.46 291.161C339.137 291.161 356.892 273.408 356.892 251.732C356.892 230.056 339.137 212.303 317.46 212.303C295.783 212.303 278.028 230.056 278.028 251.732C278.028 273.408 295.783 291.161 317.46 291.161Z" fill="#FBBEBE"/>
    <path d="M280.337 277.592C280.337 277.592 280.337 307.306 299.29 315.879C318.244 324.451 347.844 315.879 347.844 315.879C347.844 315.879 352.798 307.306 344.516 294.448C336.235 281.59 332.951 282.544 336.235 270.639C339.518 258.734 326.525 256.827 326.525 256.827C326.525 256.827 301.612 244.922 293.331 267.779C285.05 290.636 280.337 277.592 280.337 277.592Z" fill="#FBBEBE"/>
    <path d="M259.458 422.1C259.458 422.1 243.918 506.19 252.966 508.824C262.014 511.458 297.405 477.745 297.405 477.745L327.504 442.251C327.504 442.251 337.36 435.668 337.36 427.227L259.458 422.1Z" fill="#FBBEBE"/>
    <path d="M318.268 315.879C318.268 315.879 304.244 307.306 280.337 322.545C256.429 337.783 246.522 355.403 246.522 355.403C246.522 355.403 200.148 410.195 211.681 412.576C223.214 414.956 256.429 477.6 275.382 477.6C294.336 477.6 335.608 423.38 334.573 408.142C333.537 392.903 333.537 345.877 349.915 340.164C366.293 334.45 316.197 348.735 318.268 315.879Z" fill="#D0CDE1"/>
    <path d="M399.358 433.323C399.358 433.323 407.598 500.477 397.735 501.429C387.871 502.381 352.798 465.695 352.798 465.695L328.89 423.38C328.89 423.38 320.315 416.713 322.193 409.094L399.358 433.323Z" fill="#FBBEBE"/>
    <path d="M345.773 315.879C345.773 315.879 359.797 307.306 383.704 322.545C407.612 337.783 417.518 355.403 417.518 355.403C417.518 355.403 463.892 410.195 452.359 412.576C440.826 414.956 407.612 477.6 388.658 477.6C369.704 477.6 328.432 423.38 329.468 408.142C330.503 392.903 330.503 345.877 314.125 340.164C297.747 334.45 347.844 348.735 345.773 315.879Z" fill="#D0CDE1"/>
    <path opacity="0.1" d="M297.5 329.5C297.5 329.5 341 342 367 322.5" stroke="black"/>
    <path d="M368.5 321C368.5 321 325 343.5 295 328" stroke="black" opacity="0.1"/>
  </g>
  <defs>
    <linearGradient id="paint0_linear_2_8" x1="1321.5" y1="0" x2="1321.5" y2="1106" gradientUnits="userSpaceOnUse">
      <stop stop-color="#6C63FF" stop-opacity="0.15"/>
      <stop offset="1" stop-color="#6C63FF" stop-opacity="0.04"/>
    </linearGradient>
    <linearGradient id="paint1_linear_2_8" x1="-330" y1="102" x2="-330" y2="971" gradientUnits="userSpaceOnUse">
      <stop stop-color="#6C63FF" stop-opacity="0.15"/>
      <stop offset="1" stop-color="#6C63FF" stop-opacity="0.04"/>
    </linearGradient>
  </defs>
</svg> 